<svg xmlns="http://www.w3.org/2000/svg" width="400" height="330" viewBox="200 40 400 330" shape-rendering="crispEdges">
  <title>cmdr-chara logo</title>
  <g fill="#f6f5ef">
    <rect x="372" y="60" width="84" height="14"/>
    <rect x="358" y="74" width="112" height="14"/>
    <rect x="344" y="88" width="42" height="14"/>
    <rect x="442" y="88" width="28" height="14"/>
    <rect x="330" y="102" width="42" height="98"/>
    <rect x="344" y="200" width="42" height="14"/>
    <rect x="442" y="200" width="28" height="14"/>
    <rect x="358" y="214" width="112" height="14"/>
    <rect x="372" y="228" width="84" height="14"/>
  </g>

  <g fill="#e63535">
    <rect x="388" y="132" width="20" height="10"/>
    <rect x="418" y="132" width="20" height="10"/>
    <rect x="378" y="142" width="70" height="20"/>
    <rect x="388" y="162" width="50" height="10"/>
    <rect x="398" y="172" width="30" height="10"/>
    <rect x="408" y="182" width="10" height="10"/>
  </g>

  <g fill="#f6f5ef">
    <rect x="314" y="306" width="10" height="9"/>
    <rect x="440" y="306" width="10" height="9"/>
    <rect x="481" y="315" width="18" height="4"/>
    <rect x="553" y="315" width="18" height="4"/>
    <rect x="229" y="315" width="18" height="5"/>
    <rect x="260" y="315" width="14" height="5"/>
    <rect x="278" y="315" width="10" height="5"/>
    <rect x="301" y="315" width="23" height="5"/>
    <rect x="332" y="315" width="23" height="5"/>
    <rect x="409" y="315" width="18" height="5"/>
    <rect x="440" y="315" width="23" height="5"/>
    <rect x="477" y="319" width="26" height="1"/>
    <rect x="512" y="315" width="23" height="5"/>
    <rect x="549" y="319" width="26" height="1"/>
    <rect x="260" y="320" width="32" height="4"/>
    <rect x="476" y="320" width="10" height="4"/>
    <rect x="548" y="320" width="10" height="4"/>
    <rect x="242" y="320" width="10" height="9"/>
    <rect x="350" y="320" width="10" height="9"/>
    <rect x="373" y="324" width="18" height="5"/>
    <rect x="422" y="320" width="10" height="9"/>
    <rect x="494" y="320" width="10" height="9"/>
    <rect x="530" y="320" width="10" height="9"/>
    <rect x="566" y="320" width="10" height="9"/>
    <rect x="481" y="329" width="23" height="4"/>
    <rect x="553" y="329" width="23" height="4"/>
    <rect x="224" y="320" width="10" height="22"/>
    <rect x="242" y="333" width="10" height="9"/>
    <rect x="274" y="324" width="5" height="18"/>
    <rect x="296" y="320" width="10" height="22"/>
    <rect x="314" y="320" width="10" height="22"/>
    <rect x="404" y="320" width="10" height="22"/>
    <rect x="422" y="333" width="10" height="9"/>
    <rect x="476" y="333" width="10" height="9"/>
    <rect x="494" y="333" width="10" height="9"/>
    <rect x="548" y="333" width="10" height="9"/>
    <rect x="566" y="333" width="10" height="9"/>
    <rect x="229" y="342" width="18" height="5"/>
    <rect x="260" y="324" width="10" height="23"/>
    <rect x="283" y="324" width="9" height="23"/>
    <rect x="301" y="342" width="23" height="5"/>
    <rect x="332" y="320" width="10" height="27"/>
    <rect x="409" y="342" width="18" height="5"/>
    <rect x="440" y="320" width="10" height="27"/>
    <rect x="458" y="320" width="10" height="27"/>
    <rect x="481" y="342" width="23" height="5"/>
    <rect x="512" y="320" width="10" height="27"/>
    <rect x="553" y="342" width="23" height="5"/>
  </g>
</svg>
